<!-- Maquettes/accueil.svg -->
<svg xmlns="http://www.w3.org/2000/svg" viewBox="0 0 1200 800">
  <!-- Fond d'écran principal -->
  <rect width="1200" height="800" fill="#FFFFFF"/>
  
  <!-- Barre de navigation supérieure -->
  <rect width="1200" height="56" fill="#FFFFFF" stroke="#D1D1D6" stroke-width="1"/>
  
  <!-- Logo et titre de l'application -->
  <circle cx="32" cy="28" r="16" fill="#772953"/>
  <text x="58" y="33" font-family="Ubuntu" font-size="18" font-weight="500" fill="#202020">CustomSync</text>
  
  <!-- Actions dans la barre de navigation -->
  <rect x="1080" y="16" width="24" height="24" rx="12" fill="#F5F5F7"/>
  <circle cx="1092" cy="28" r="8" fill="#772953" opacity="0.8"/>
  <rect x="1128" y="16" width="24" height="24" rx="12" fill="#F5F5F7"/>
  <path d="M1134 28 L1146 28 M1140 22 L1140 34" stroke="#5E5E5E" stroke-width="2"/>
  
  <!-- Titre principal -->
  <text x="48" y="104" font-family="Ubuntu" font-size="28" font-weight="300" fill="#202020">Tableau de bord</text>
  
  <!-- Section "État du système" -->
  <rect x="48" y="128" width="1104" height="120" rx="6" fill="#F5F5F7"/>
  <text x="72" y="160" font-family="Ubuntu" font-size="16" font-weight="500" fill="#202020">État du système</text>
  
  <!-- Statistiques système -->
  <rect x="72" y="176" width="256" height="48" rx="4" fill="#FFFFFF"/>
  <text x="88" y="205" font-family="Ubuntu" font-size="14" fill="#5E5E5E">Dernier scan</text>
  <text x="278" y="205" font-family="Ubuntu" font-size="14" fill="#202020" text-anchor="end">18 février 2025</text>
  
  <rect x="344" y="176" width="256" height="48" rx="4" fill="#FFFFFF"/>
  <text x="360" y="205" font-family="Ubuntu" font-size="14" fill="#5E5E5E">Inventaires</text>
  <text x="550" y="205" font-family="Ubuntu" font-size="14" fill="#202020" text-anchor="end">7</text>
  
  <rect x="616" y="176" width="256" height="48" rx="4" fill="#FFFFFF"/>
  <text x="632" y="205" font-family="Ubuntu" font-size="14" fill="#5E5E5E">Applications sauvegardées</text>
  <text x="822" y="205" font-family="Ubuntu" font-size="14" fill="#202020" text-anchor="end">42</text>
  
  <rect x="888" y="176" width="256" height="48" rx="4" fill="#FFFFFF"/>
  <text x="904" y="205" font-family="Ubuntu" font-size="14" fill="#5E5E5E">Configurations</text>
  <text x="1094" y="205" font-family="Ubuntu" font-size="14" fill="#202020" text-anchor="end">156</text>
  
  <!-- Actions principales -->
  <text x="48" y="296" font-family="Ubuntu" font-size="16" font-weight="500" fill="#202020">Actions</text>
  
  <!-- Boutons d'action principaux -->
  <rect x="48" y="312" width="264" height="88" rx="6" fill="#FFFFFF" filter="drop-shadow(0 3px 6px rgba(0,0,0,0.1))"/>
  <circle cx="88" cy="356" r="20" fill="#772953" opacity="0.1"/>
  <path d="M82 356 L94 356 M88 350 L88 362" stroke="#772953" stroke-width="2"/>
  <text x="120" y="352" font-family="Ubuntu" font-size="16" font-weight="500" fill="#202020">Nouveau scan</text>
  <text x="120" y="372" font-family="Ubuntu" font-size="13" font-weight="300" fill="#5E5E5E">Créer un nouvel inventaire</text>
  
  <rect x="328" y="312" width="264" height="88" rx="6" fill="#FFFFFF" filter="drop-shadow(0 3px 6px rgba(0,0,0,0.1))"/>
  <circle cx="368" cy="356" r="20" fill="#772953" opacity="0.1"/>
  <path d="M362 356 L374 356 M362 356 L368 350 M362 356 L368 362" stroke="#772953" stroke-width="2"/>
  <text x="400" y="352" font-family="Ubuntu" font-size="16" font-weight="500" fill="#202020">Appliquer</text>
  <text x="400" y="372" font-family="Ubuntu" font-size="13" font-weight="300" fill="#5E5E5E">Restaurer un inventaire</text>
  
  <rect x="608" y="312" width="264" height="88" rx="6" fill="#FFFFFF" filter="drop-shadow(0 3px 6px rgba(0,0,0,0.1))"/>
  <circle cx="648" cy="356" r="20" fill="#772953" opacity="0.1"/>
  <path d="M642 350 L654 362 M642 362 L654 350" stroke="#772953" stroke-width="2"/>
  <text x="680" y="352" font-family="Ubuntu" font-size="16" font-weight="500" fill="#202020">Comparer</text>
  <text x="680" y="372" font-family="Ubuntu" font-size="13" font-weight="300" fill="#5E5E5E">Comparer des inventaires</text>
  
  <rect x="888" y="312" width="264" height="88" rx="6" fill="#FFFFFF" filter="drop-shadow(0 3px 6px rgba(0,0,0,0.1))"/>
  <circle cx="928" cy="356" r="20" fill="#772953" opacity="0.1"/>
  <path d="M922 351 L934 351 M922 356 L934 356 M922 361 L934 361" stroke="#772953" stroke-width="2"/>
  <text x="960" y="352" font-family="Ubuntu" font-size="16" font-weight="500" fill="#202020">Explorer</text>
  <text x="960" y="372" font-family="Ubuntu" font-size="13" font-weight="300" fill="#5E5E5E">Parcourir tous les inventaires</text>
  
  <!-- Inventaires récents -->
  <text x="48" y="448" font-family="Ubuntu" font-size="16" font-weight="500" fill="#202020">Inventaires récents</text>
  
  <!-- Cartes d'inventaire -->
  <rect x="48" y="464" width="352" height="140" rx="6" fill="#FFFFFF" filter="drop-shadow(0 3px 6px rgba(0,0,0,0.1))"/>
  <text x="72" y="496" font-family="Ubuntu" font-size="16" font-weight="500" fill="#202020">Configuration de travail</text>
  <text x="72" y="520" font-family="Ubuntu" font-size="13" font-weight="300" fill="#5E5E5E">Créé le 18 février 2025</text>
  <rect x="72" y="536" width="304" height="40" rx="4" fill="#F5F5F7"/>
  <rect x="88" y="548" width="64" height="16" rx="8" fill="#EAEAEC"/>
  <text x="105" y="560" font-family="Ubuntu" font-size="11" fill="#5E5E5E">42 apps</text>
  <rect x="160" y="548" width="64" height="16" rx="8" fill="#EAEAEC"/>
  <text x="177" y="560" font-family="Ubuntu" font-size="11" fill="#5E5E5E">15 ext.</text>
  <rect x="232" y="548" width="80" height="16" rx="8" fill="#EAEAEC"/>
  <text x="249" y="560" font-family="Ubuntu" font-size="11" fill="#5E5E5E">56 config.</text>
  <circle cx="360" cy="496" r="12" fill="#FFFFFF"/>
  <path d="M355 496 L365 496 M360 491 L360 501" stroke="#D1D1D6" stroke-width="1.5"/>
  
  <rect x="416" y="464" width="352" height="140" rx="6" fill="#FFFFFF" filter="drop-shadow(0 3px 6px rgba(0,0,0,0.1))"/>
  <text x="440" y="496" font-family="Ubuntu" font-size="16" font-weight="500" fill="#202020">Configuration de gaming</text>
  <text x="440" y="520" font-family="Ubuntu" font-size="13" font-weight="300" fill="#5E5E5E">Créé le 15 février 2025</text>
  <rect x="440" y="536" width="304" height="40" rx="4" fill="#F5F5F7"/>
  <rect x="456" y="548" width="64" height="16" rx="8" fill="#EAEAEC"/>
  <text x="473" y="560" font-family="Ubuntu" font-size="11" fill="#5E5E5E">28 apps</text>
  <rect x="528" y="548" width="64" height="16" rx="8" fill="#EAEAEC"/>
  <text x="545" y="560" font-family="Ubuntu" font-size="11" fill="#5E5E5E">8 ext.</text>
  <rect x="600" y="548" width="80" height="16" rx="8" fill="#EAEAEC"/>
  <text x="617" y="560" font-family="Ubuntu" font-size="11" fill="#5E5E5E">32 config.</text>
  <circle cx="728" cy="496" r="12" fill="#FFFFFF"/>
  <path d="M723 496 L733 496 M728 491 L728 501" stroke="#D1D1D6" stroke-width="1.5"/>
  
  <rect x="784" y="464" width="352" height="140" rx="6" fill="#FFFFFF" filter="drop-shadow(0 3px 6px rgba(0,0,0,0.1))"/>
  <text x="808" y="496" font-family="Ubuntu" font-size="16" font-weight="500" fill="#202020">Configuration minimale</text>
  <text x="808" y="520" font-family="Ubuntu" font-size="13" font-weight="300" fill="#5E5E5E">Créé le 10 février 2025</text>
  <rect x="808" y="536" width="304" height="40" rx="4" fill="#F5F5F7"/>
  <rect x="824" y="548" width="64" height="16" rx="8" fill="#EAEAEC"/>
  <text x="841" y="560" font-family="Ubuntu" font-size="11" fill="#5E5E5E">16 apps</text>
  <rect x="896" y="548" width="64" height="16" rx="8" fill="#EAEAEC"/>
  <text x="913" y="560" font-family="Ubuntu" font-size="11" fill="#5E5E5E">4 ext.</text>
  <rect x="968" y="548" width="80" height="16" rx="8" fill="#EAEAEC"/>
  <text x="985" y="560" font-family="Ubuntu" font-size="11" fill="#5E5E5E">24 config.</text>
  <circle cx="1096" cy="496" r="12" fill="#FFFFFF"/>
  <path d="M1091 496 L1101 496 M1096 491 L1096 501" stroke="#D1D1D6" stroke-width="1.5"/>
  
  <!-- Bouton d'action supplémentaire -->
  <rect x="48" y="624" width="1104" height="48" rx="6" fill="#FFFFFF" stroke="#D1D1D6" stroke-width="1"/>
  <text x="600" y="654" font-family="Ubuntu" font-size="14" font-weight="400" fill="#772953" text-anchor="middle">Voir tous les inventaires</text>
  
  <!-- Bouton flottant d'action principale -->
  <circle cx="1128" cy="728" r="28" fill="#772953" filter="drop-shadow(0 3px 6px rgba(0,0,0,0.1))"/>
  <path d="M1120 728 L1136 728 M1128 720 L1128 736" stroke="#FFFFFF" stroke-width="2.5"/>
</svg>
