<!-- Maquettes/assistant-scan-config.svg -->
<svg xmlns="http://www.w3.org/2000/svg" viewBox="0 0 1200 800">
  <!-- Fond d'écran principal -->
  <rect width="1200" height="800" fill="#FFFFFF"/>
  
  <!-- Barre de navigation supérieure -->
  <rect width="1200" height="56" fill="#FFFFFF" stroke="#D1D1D6" stroke-width="1"/>
  
  <!-- Logo et titre de l'application -->
  <circle cx="32" cy="28" r="16" fill="#772953"/>
  <text x="58" y="33" font-family="Ubuntu" font-size="18" font-weight="500" fill="#202020">CustomSync</text>
  
  <!-- Actions dans la barre de navigation -->
  <rect x="1080" y="16" width="24" height="24" rx="12" fill="#F5F5F7"/>
  <circle cx="1092" cy="28" r="8" fill="#772953" opacity="0.8"/>
  <rect x="1128" y="16" width="24" height="24" rx="12" fill="#F5F5F7"/>
  <path d="M1134 28 L1146 28 M1140 22 L1140 34" stroke="#5E5E5E" stroke-width="2"/>
  
  <!-- Titre principal -->
  <text x="48" y="104" font-family="Ubuntu" font-size="28" font-weight="300" fill="#202020">Nouvel inventaire</text>
  
  <!-- Indicateur d'étapes -->
  <rect x="240" y="116" width="720" height="2" rx="1" fill="#D1D1D6"/>
  
  <!-- Étape 1 active -->
  <circle cx="240" cy="116" r="8" fill="#772953" stroke="#FFFFFF" stroke-width="2"/>
  <text x="240" y="140" font-family="Ubuntu" font-size="12" fill="#772953" text-anchor="middle">Configuration</text>
  
  <!-- Étapes futures -->
  <circle cx="385" cy="116" r="6" fill="#D1D1D6"/>
  <text x="385" y="140" font-family="Ubuntu" font-size="12" fill="#8E8E93" text-anchor="middle">Applications</text>
  
  <circle cx="530" cy="116" r="6" fill="#D1D1D6"/>
  <text x="530" y="140" font-family="Ubuntu" font-size="12" fill="#8E8E93" text-anchor="middle">Extensions</text>
  
  <circle cx="675" cy="116" r="6" fill="#D1D1D6"/>
  <text x="675" y="140" font-family="Ubuntu" font-size="12" fill="#8E8E93" text-anchor="middle">Apparence</text>
  
  <circle cx="820" cy="116" r="6" fill="#D1D1D6"/>
  <text x="820" y="140" font-family="Ubuntu" font-size="12" fill="#8E8E93" text-anchor="middle">Configurations</text>
  
  <circle cx="960" cy="116" r="6" fill="#D1D1D6"/>
  <text x="960" y="140" font-family="Ubuntu" font-size="12" fill="#8E8E93" text-anchor="middle">Récapitulatif</text>
  
  <!-- Contenu principal -->
  <rect x="240" y="180" width="720" height="500" rx="6" fill="#FFFFFF" filter="drop-shadow(0 1px 3px rgba(0,0,0,0.08))"/>
  
  <!-- Titre de l'étape -->
  <text x="280" y="224" font-family="Ubuntu" font-size="20" font-weight="500" fill="#202020">Configuration de l'inventaire</text>
  <text x="280" y="252" font-family="Ubuntu" font-size="14" fill="#5E5E5E">Définissez les options générales pour ce nouvel inventaire.</text>
  
  <!-- Options de scan -->
  <text x="280" y="300" font-family="Ubuntu" font-size="16" font-weight="500" fill="#202020">Nom de l'inventaire</text>
  <rect x="280" y="316" width="640" height="40" rx="4" fill="#FFFFFF" stroke="#D1D1D6" stroke-width="1"/>
  <text x="296" y="340" font-family="Ubuntu" font-size="14" fill="#202020">Configuration du 9 mars 2025</text>
  
  <!-- Description -->
  <text x="280" y="384" font-family="Ubuntu" font-size="16" font-weight="500" fill="#202020">Description (optionnelle)</text>
  <rect x="280" y="400" width="640" height="80" rx="4" fill="#FFFFFF" stroke="#D1D1D6" stroke-width="1"/>
  <text x="296" y="424" font-family="Ubuntu" font-size="14" fill="#8E8E93">Ajoutez une description pour faciliter l'identification ultérieure...</text>
  
  <!-- Options avancées -->
  <text x="280" y="512" font-family="Ubuntu" font-size="16" font-weight="500" fill="#202020">Options avancées</text>
  
  <!-- Option référence -->
  <rect x="280" y="536" width="640" height="48" rx="4" fill="#F5F5F7"/>
  <rect x="296" y="552" width="16" height="16" rx="2" fill="#FFFFFF" stroke="#772953" stroke-width="1.5"/>
  <text x="324" y="564" font-family="Ubuntu" font-size="14" fill="#202020">Utiliser un inventaire de référence</text>
  
  <!-- Sélecteur de référence (désactivé) -->
  <rect x="280" y="600" width="640" height="40" rx="4" fill="#F5F5F7" stroke="#D1D1D6" stroke-width="1" opacity="0.5"/>
  <text x="296" y="624" font-family="Ubuntu" font-size="14" fill="#8E8E93">Sélectionner un inventaire</text>
  <path d="M904 612 L912 620 L904 628" stroke="#8E8E93" stroke-width="1.5" fill="none"/>
  
  <!-- Actions -->
  <rect x="240" y="700" width="720" height="60" rx="0" fill="#F5F5F7"/>
  
  <rect x="784" y="718" width="156" height="36" rx="4" fill="#772953"/>
  <text x="855" y="740" font-family="Ubuntu" font-size="14" fill="#FFFFFF" text-anchor="middle">Commencer</text>
  <path d="M890 732 L902 732 M896 726 L902 732 L896 738" stroke="#FFFFFF" stroke-width="1.5" fill="none"/>
  
  <rect x="608" y="718" width="156" height="36" rx="4" fill="#FFFFFF" stroke="#D1D1D6" stroke-width="1"/>
  <text x="686" y="740" font-family="Ubuntu" font-size="14" fill="#202020" text-anchor="middle">Annuler</text>
</svg>
