<!-- Maquettes/explorateur-inventaires.svg -->
<svg xmlns="http://www.w3.org/2000/svg" viewBox="0 0 1200 800">
  <!-- Fond d'écran principal -->
  <rect width="1200" height="800" fill="#FFFFFF"/>
  
  <!-- Barre de navigation supérieure -->
  <rect width="1200" height="56" fill="#FFFFFF" stroke="#D1D1D6" stroke-width="1"/>
  
  <!-- Logo et titre de l'application -->
  <circle cx="32" cy="28" r="16" fill="#772953"/>
  <text x="58" y="33" font-family="Ubuntu" font-size="18" font-weight="500" fill="#202020">CustomSync</text>
  
  <!-- Actions dans la barre de navigation -->
  <rect x="1080" y="16" width="24" height="24" rx="12" fill="#F5F5F7"/>
  <circle cx="1092" cy="28" r="8" fill="#772953" opacity="0.8"/>
  <rect x="1128" y="16" width="24" height="24" rx="12" fill="#F5F5F7"/>
  <path d="M1134 28 L1146 28 M1140 22 L1140 34" stroke="#5E5E5E" stroke-width="2"/>
  
  <!-- Titre principal et barre d'outils -->
  <rect x="0" y="56" width="1200" height="64" fill="#FFFFFF" stroke="#D1D1D6" stroke-width="1"/>
  <text x="48" y="96" font-family="Ubuntu" font-size="20" font-weight="400" fill="#202020">Explorateur d'inventaires</text>
  
  <!-- Barre de recherche -->
  <rect x="748" y="72" width="240" height="32" rx="4" fill="#F5F5F7" stroke="#D1D1D6" stroke-width="1"/>
  <path d="M764 88 C764 84, 767 80, 771 80 C775 80, 778 84, 778 88 C778 92, 775 96, 771 96 C767 96, 764 92, 764 88 M778 96 L782 100" stroke="#8E8E93" stroke-width="1.5" fill="none"/>
  <text x="788" y="92" font-family="Ubuntu" font-size="13" fill="#8E8E93">Rechercher...</text>
  
  <!-- Boutons d'action -->
  <rect x="1000" y="72" width="32" height="32" rx="4" fill="#F5F5F7"/>
  <path d="M1008 88 L1024 88 M1016 80 L1016 96" stroke="#5E5E5E" stroke-width="1.5"/>
  <rect x="1040" y="72" width="32" height="32" rx="4" fill="#F5F5F7"/>
  <path d="M1048 88 L1064 88" stroke="#5E5E5E" stroke-width="1.5"/>
  <rect x="1080" y="72" width="72" height="32" rx="4" fill="#772953"/>
  <text x="1116" y="92" font-family="Ubuntu" font-size="13" font-weight="500" fill="#FFFFFF" text-anchor="middle">Scan</text>
  
  <!-- Structure principale à trois colonnes -->
  <rect x="0" y="120" width="240" height="680" fill="#F5F5F7" stroke="#D1D1D6" stroke-width="1"/>
  <rect x="240" y="120" width="400" height="680" fill="#FFFFFF"/>
  <rect x="640" y="120" width="560" height="680" fill="#FFFFFF" stroke="#D1D1D6" stroke-width="1"/>
  
  <!-- Panneau de navigation à gauche -->
  <text x="24" y="152" font-family="Ubuntu" font-size="14" font-weight="500" fill="#202020">COLLECTIONS</text>
  
  <!-- Menu de navigation -->
  <rect x="0" y="168" width="240" height="40" fill="#EAEAEC"/>
  <rect x="0" y="168" width="4" height="40" fill="#772953"/>
  <text x="48" y="192" font-family="Ubuntu" font-size="14" font-weight="400" fill="#202020">Tous les inventaires</text>
  <text x="216" y="192" font-family="Ubuntu" font-size="13" font-weight="400" fill="#5E5E5E" text-anchor="end">7</text>
  
  <rect x="0" y="208" width="240" height="40" fill="transparent"/>
  <text x="48" y="232" font-family="Ubuntu" font-size="14" font-weight="400" fill="#202020">Récents</text>
  <text x="216" y="232" font-family="Ubuntu" font-size="13" font-weight="400" fill="#5E5E5E" text-anchor="end">3</text>
  
  <rect x="0" y="248" width="240" height="40" fill="transparent"/>
  <text x="48" y="272" font-family="Ubuntu" font-size="14" font-weight="400" fill="#202020">Favoris</text>
  <text x="216" y="272" font-family="Ubuntu" font-size="13" font-weight="400" fill="#5E5E5E" text-anchor="end">2</text>
  
  <text x="24" y="312" font-family="Ubuntu" font-size="14" font-weight="500" fill="#202020">GROUPES</text>
  
  <rect x="0" y="328" width="240" height="40" fill="transparent"/>
  <text x="48" y="352" font-family="Ubuntu" font-size="14" font-weight="400" fill="#202020">Travail</text>
  <text x="216" y="352" font-family="Ubuntu" font-size="13" font-weight="400" fill="#5E5E5E" text-anchor="end">3</text>
  
  <rect x="0" y="368" width="240" height="40" fill="transparent"/>
  <text x="48" y="392" font-family="Ubuntu" font-size="14" font-weight="400" fill="#202020">Personnel</text>
  <text x="216" y="392" font-family="Ubuntu" font-size="13" font-weight="400" fill="#5E5E5E" text-anchor="end">2</text>
  
  <rect x="0" y="408" width="240" height="40" fill="transparent"/>
  <text x="48" y="432" font-family="Ubuntu" font-size="14" font-weight="400" fill="#202020">Gaming</text>
  <text x="216" y="432" font-family="Ubuntu" font-size="13" font-weight="400" fill="#5E5E5E" text-anchor="end">2</text>
  
  <text x="24" y="472" font-family="Ubuntu" font-size="14" font-weight="500" fill="#202020">ÉTIQUETTES</text>
  
  <rect x="24" y="488" width="80" height="24" rx="12" fill="#EAEAEC"/>
  <text x="64" y="504" font-family="Ubuntu" font-size="12" font-weight="400" fill="#5E5E5E" text-anchor="middle">Ubuntu 22.04</text>
  
  <rect x="112" y="488" width="64" height="24" rx="12" fill="#EAEAEC"/>
  <text x="144" y="504" font-family="Ubuntu" font-size="12" font-weight="400" fill="#5E5E5E" text-anchor="middle">Laptop</text>
  
  <rect x="184" y="488" width="32" height="24" rx="12" fill="#EAEAEC"/>
  <text x="200" y="504" font-family="Ubuntu" font-size="12" font-weight="400" fill="#5E5E5E" text-anchor="middle">Dev</text>
  
  <rect x="24" y="520" width="72" height="24" rx="12" fill="#EAEAEC"/>
  <text x="60" y="536" font-family="Ubuntu" font-size="12" font-weight="400" fill="#5E5E5E" text-anchor="middle">Graphics</text>
  
  <rect x="104" y="520" width="56" height="24" rx="12" fill="#EAEAEC"/>
  <text x="132" y="536" font-family="Ubuntu" font-size="12" font-weight="400" fill="#5E5E5E" text-anchor="middle">Office</text>
  
  <!-- Liste des inventaires (colonne centrale) -->
  <rect x="240" y="120" width="400" height="48" fill="#F5F5F7" stroke="#D1D1D6" stroke-width="1"/>
  <text x="264" y="148" font-family="Ubuntu" font-size="13" font-weight="500" fill="#5E5E5E">7 INVENTAIRES</text>
  <rect x="508" y="132" width="24" height="24" rx="4" fill="transparent" stroke="#D1D1D6" stroke-width="1"/>
  <path d="M514 144 L526 144 M520 138 L520 150" stroke="#5E5E5E" stroke-width="1.5"/>
  <rect x="544" y="132" width="72" height="24" rx="4" fill="#F5F5F7" stroke="#D1D1D6" stroke-width="1"/>
  <text x="558" y="148" font-family="Ubuntu" font-size="12" font-weight="400" fill="#5E5E5E">Récent</text>
  <path d="M604 138 L608 142 L612 138" stroke="#5E5E5E" stroke-width="1"/>
  
  <!-- Élément d'inventaire 1 - sélectionné -->
  <rect x="240" y="168" width="400" height="80" fill="#F5F5F7"/>
  <rect x="240" y="168" width="3" height="80" fill="#772953"/>
  <text x="264" y="192" font-family="Ubuntu" font-size="15" font-weight="500" fill="#202020">Configuration de travail</text>
  <text x="264" y="216" font-family="Ubuntu" font-size="13" font-weight="300" fill="#5E5E5E">Créé le 18 février 2025 · 42 apps · 15 ext. · 56 config.</text>
  <text x="264" y="236" font-family="Ubuntu" font-size="12" font-weight="400" fill="#8E8E93">Groupe: Travail</text>
  <rect x="568" y="192" width="48" height="24" rx="4" fill="transparent"/>
  <path d="M576 204 L608 204 M576 204 L584 196 M576 204 L584 212" stroke="#5E5E5E" stroke-width="1.5"/>
  
  <!-- Autres éléments d'inventaire -->
  <rect x="240" y="248" width="400" height="80" fill="transparent"/>
  <text x="264" y="272" font-family="Ubuntu" font-size="15" font-weight="400" fill="#202020">Configuration de gaming</text>
  <text x="264" y="296" font-family="Ubuntu" font-size="13" font-weight="300" fill="#5E5E5E">Créé le 15 février 2025 · 28 apps · 8 ext. · 32 config.</text>
  <text x="264" y="316" font-family="Ubuntu" font-size="12" font-weight="400" fill="#8E8E93">Groupe: Gaming</text>
  
  <rect x="240" y="328" width="400" height="80" fill="transparent"/>
  <text x="264" y="352" font-family="Ubuntu" font-size="15" font-weight="400" fill="#202020">Configuration minimale</text>
  <text x="264" y="376" font-family="Ubuntu" font-size="13" font-weight="300" fill="#5E5E5E">Créé le 10 février 2025 · 16 apps · 4 ext. · 24 config.</text>
  <text x="264" y="396" font-family="Ubuntu" font-size="12" font-weight="400" fill="#8E8E93">Groupe: Personnel</text>
  
  <rect x="240" y="408" width="400" height="80" fill="transparent"/>
  <text x="264" y="432" font-family="Ubuntu" font-size="15" font-weight="400" fill="#202020">Configuration de bureau</text>
  <text x="264" y="456" font-family="Ubuntu" font-size="13" font-weight="300" fill="#5E5E5E">Créé le 5 février 2025 · 38 apps · 10 ext. · 48 config.</text>
  <text x="264" y="476" font-family="Ubuntu" font-size="12" font-weight="400" fill="#8E8E93">Groupe: Travail</text>
  
  <rect x="240" y="488" width="400" height="80" fill="transparent"/>
  <text x="264" y="512" font-family="Ubuntu" font-size="15" font-weight="400" fill="#202020">Configuration graphique</text>
  <text x="264" y="536" font-family="Ubuntu" font-size="13" font-weight="300" fill="#5E5E5E">Créé le 1 février 2025 · 34 apps · 12 ext. · 40 config.</text>
  <text x="264" y="556" font-family="Ubuntu" font-size="12" font-weight="400" fill="#8E8E93">Groupe: Travail</text>
  
  <!-- Panneau de détail à droite -->
  <text x="672" y="156" font-family="Ubuntu" font-size="20" font-weight="400" fill="#202020">Configuration de travail</text>
  <rect x="672" y="168" width="48" height="24" rx="4" fill="#F5F5F7"/>
  <text x="696" y="184" font-family="Ubuntu" font-size="12" font-weight="400" fill="#5E5E5E" text-anchor="middle">Éditer</text>
  <rect x="728" y="168" width="80" height="24" rx="4" fill="#F5F5F7"/>
  <text x="768" y="184" font-family="Ubuntu" font-size="12" font-weight="400" fill="#5E5E5E" text-anchor="middle">Appliquer</text>
  <rect x="816" y="168" width="72" height="24" rx="4" fill="#F5F5F7"/>
  <text x="852" y="184" font-family="Ubuntu" font-size="12" font-weight="400" fill="#5E5E5E" text-anchor="middle">Comparer</text>
  <rect x="896" y="168" width="80" height="24" rx="4" fill="#F5F5F7"/>
  <text x="936" y="184" font-family="Ubuntu" font-size="12" font-weight="400" fill="#5E5E5E" text-anchor="middle">Exporter</text>
  <rect x="984" y="168" width="48" height="24" rx="4" fill="#F5F5F7"/>
  <text x="1008" y="184" font-family="Ubuntu" font-size="12" font-weight="400" fill="#5E5E5E" text-anchor="middle">Plus</text>
  
  <text x="672" y="220" font-family="Ubuntu" font-size="13" font-weight="300" fill="#5E5E5E">Créé le 18 février 2025 · Modifié le 18 février 2025</text>
  
  <!-- Navigation par onglets -->
  <rect x="672" y="240" width="496" height="40" fill="transparent" stroke="#D1D1D6" stroke-width="0 0 1 0"/>
  <text x="672" y="264" font-family="Ubuntu" font-size="14" font-weight="500" fill="#202020">Applications</text>
  <rect x="672" y="279" width="80" height="2" fill="#772953"/>
  <text x="784" y="264" font-family="Ubuntu" font-size="14" font-weight="400" fill="#5E5E5E">Extensions</text>
  <text x="896" y="264" font-family="Ubuntu" font-size="14" font-weight="400" fill="#5E5E5E">Raccourcis</text>
  <text x="1008" y="264" font-family="Ubuntu" font-size="14" font-weight="400" fill="#5E5E5E">Thèmes</text>
  <text x="1120" y="264" font-family="Ubuntu" font-size="14" font-weight="400" fill="#5E5E5E">Config.</text>
  
  <!-- Barre de recherche dans le panneau de détail -->
  <rect x="672" y="296" width="496" height="32" rx="4" fill="#F5F5F7" stroke="#D1D1D6" stroke-width="1"/>
  <path d="M688 312 C688 308, 691 304, 695 304 C699 304, 702 308, 702 312 C702 316, 699 320, 695 320 C691 320, 688 316, 688 312 M702 320 L706 324" stroke="#8E8E93" stroke-width="1.5" fill="none"/>
  <text x="712" y="316" font-family="Ubuntu" font-size="13" fill="#8E8E93">Filtrer les applications...</text>
  
  <!-- Contenu du détail - Liste d'applications -->
  <rect x="672" y="344" width="496" height="32" fill="#F5F5F7"/>
  <text x="688" y="364" font-family="Ubuntu" font-size="13" font-weight="500" fill="#5E5E5E">APPLICATIONS (42)</text>
  
  <!-- Éléments de la liste d'applications -->
  <rect x="672" y="376" width="496" height="56" fill="transparent" stroke="#D1D1D6" stroke-width="0 0 1 0"/>
  <text x="688" y="404" font-family="Ubuntu" font-size="14" font-weight="400" fill="#202020">Firefox</text>
  <text x="688" y="424" font-family="Ubuntu" font-size="12" font-weight="300" fill="#8E8E93">Version 91.0</text>
  <text x="1136" y="404" font-family="Ubuntu" font-size="12" font-weight="400" fill="#5E5E5E" text-anchor="end">firefox_115.0.2+build1-0ubuntu0.22.04.1</text>
  
  <rect x="672" y="432" width="496" height="56" fill="transparent" stroke="#D1D1D6" stroke-width="0 0 1 0"/>
  <text x="688" y="460" font-family="Ubuntu" font-size="14" font-weight="400" fill="#202020">Visual Studio Code</text>
  <text x="688" y="480" font-family="Ubuntu" font-size="12" font-weight="300" fill="#8E8E93">Version 1.74.3</text>
  <text x="1136" y="460" font-family="Ubuntu" font-size="12" font-weight="400" fill="#5E5E5E" text-anchor="end">code_1.74.3-1673284829_amd64</text>
  
  <rect x="672" y="488" width="496" height="56" fill="transparent" stroke="#D1D1D6" stroke-width="0 0 1 0"/>
  <text x="688" y="516" font-family="Ubuntu" font-size="14" font-weight="400" fill="#202020">GIMP</text>
  <text x="688" y="536" font-family="Ubuntu" font-size="12" font-weight="300" fill="#8E8E93">Version 2.10.30</text>
  <text x="1136" y="516" font-family="Ubuntu" font-size="12" font-weight="400" fill="#5E5E5E" text-anchor="end">gimp_2.10.30-1ubuntu1</text>
  
  <rect x="672" y="544" width="496" height="56" fill="transparent" stroke="#D1D1D6" stroke-width="0 0 1 0"/>
  <text x="688" y="572" font-family="Ubuntu" font-size="14" font-weight="400" fill="#202020">LibreOffice Writer</text>
  <text x="688" y="592" font-family="Ubuntu" font-size="12" font-weight="300" fill="#8E8E93">Version 7.3.7</text>
  <text x="1136" y="572" font-family="Ubuntu" font-size="12" font-weight="400" fill="#5E5E5E" text-anchor="end">libreoffice-writer_7.3.7-0ubuntu0.22.04.3</text>
  
  <rect x="672" y="600" width="496" height="56" fill="transparent" stroke="#D1D1D6" stroke-width="0 0 1 0"/>
  <text x="688" y="628" font-family="Ubuntu" font-size="14" font-weight="400" fill="#202020">Thunderbird</text>
  <text x="688" y="648" font-family="Ubuntu" font-size="12" font-weight="300" fill="#8E8E93">Version 115.4.2</text>
  <text x="1136" y="628" font-family="Ubuntu" font-size="12" font-weight="400" fill="#5E5E5E" text-anchor="end">thunderbird_115.4.2+build1-0ubuntu0.22.04.1</text>
  
  <rect x="672" y="656" width="496" height="56" fill="transparent" stroke="#D1D1D6" stroke-width="0 0 1 0"/>
  <text x="688" y="684" font-family="Ubuntu" font-size="14" font-weight="400" fill="#202020">Terminal</text>
  <text x="688" y="704" font-family="Ubuntu" font-size="12" font-weight="300" fill="#8E8E93">Version 3.44.0</text>
  <text x="1136" y="684" font-family="Ubuntu" font-size="12" font-weight="400" fill="#5E5E5E" text-anchor="end">gnome-terminal_3.44.0-1ubuntu1</text>
  
  <!-- Pagination -->
  <rect x="672" y="728" width="496" height="48" fill="transparent"/>
  <text x="912" y="756" font-family="Ubuntu" font-size="13" font-weight="400" fill="#5E5E5E" text-anchor="middle">Page 1 sur 7</text>
  <rect x="952" y="736" width="32" height="32" rx="4" fill="#F5F5F7"/>
  <path d="M964 752 L972 744 M964 752 L972 760" stroke="#5E5E5E" stroke-width="1.5"/>
  <rect x="992" y="736" width="32" height="32" rx="4" fill="#F5F5F7"/>
  <path d="M1000 752 L1008 744 M1000 752 L1008 760" stroke="#5E5E5E" stroke-width="1.5"/>
  <rect x="1032" y="736" width="32" height="32" rx="4" fill="#F5F5F7"/>
  <path d="M1040 752 L1048 744 M1040 752 L1048 760" stroke="#5E5E5E" stroke-width="1.5"/>
</svg>
