<!-- Maquettes/scan-select-configurations.svg -->
<svg xmlns="http://www.w3.org/2000/svg" viewBox="0 0 1200 800">
  <!-- Fond d'écran principal -->
  <rect width="1200" height="800" fill="#FFFFFF"/>
  
  <!-- Barre de navigation supérieure -->
  <rect width="1200" height="56" fill="#FFFFFF" stroke="#D1D1D6" stroke-width="1"/>
  
  <!-- Logo et titre de l'application -->
  <circle cx="32" cy="28" r="16" fill="#772953"/>
  <text x="58" y="33" font-family="Ubuntu" font-size="18" font-weight="500" fill="#202020">CustomSync</text>
  
  <!-- Actions dans la barre de navigation -->
  <rect x="1080" y="16" width="24" height="24" rx="12" fill="#F5F5F7"/>
  <circle cx="1092" cy="28" r="8" fill="#772953" opacity="0.8"/>
  <rect x="1128" y="16" width="24" height="24" rx="12" fill="#F5F5F7"/>
  <path d="M1134 28 L1146 28 M1140 22 L1140 34" stroke="#5E5E5E" stroke-width="2"/>
  
  <!-- Titre principal -->
  <text x="48" y="104" font-family="Ubuntu" font-size="28" font-weight="300" fill="#202020">Nouvel inventaire</text>
  
  <!-- Indicateur d'étapes -->
  <rect x="240" y="116" width="720" height="2" rx="1" fill="#D1D1D6"/>
  
  <!-- Étapes complétées -->
  <circle cx="240" cy="116" r="8" fill="#2D9D78" stroke="#FFFFFF" stroke-width="2"/>
  <text x="240" y="140" font-family="Ubuntu" font-size="12" fill="#2D9D78" text-anchor="middle">Configuration</text>
  
  <circle cx="385" cy="116" r="8" fill="#2D9D78" stroke="#FFFFFF" stroke-width="2"/>
  <text x="385" y="140" font-family="Ubuntu" font-size="12" fill="#2D9D78" text-anchor="middle">Applications</text>
  
  <circle cx="530" cy="116" r="8" fill="#2D9D78" stroke="#FFFFFF" stroke-width="2"/>
  <text x="530" y="140" font-family="Ubuntu" font-size="12" fill="#2D9D78" text-anchor="middle">Extensions</text>
  
  <circle cx="675" cy="116" r="8" fill="#2D9D78" stroke="#FFFFFF" stroke-width="2"/>
  <text x="675" y="140" font-family="Ubuntu" font-size="12" fill="#2D9D78" text-anchor="middle">Apparence</text>
  
  <!-- Étape active -->
  <circle cx="820" cy="116" r="8" fill="#772953" stroke="#FFFFFF" stroke-width="2"/>
  <text x="820" y="140" font-family="Ubuntu" font-size="12" fill="#772953" text-anchor="middle">Configurations</text>
  
  <!-- Étape future -->
  <circle cx="960" cy="116" r="6" fill="#D1D1D6"/>
  <text x="960" y="140" font-family="Ubuntu" font-size="12" fill="#8E8E93" text-anchor="middle">Récapitulatif</text>

  <!-- En-tête de section -->
  <text x="64" y="184" font-family="Ubuntu" font-size="20" font-weight="500" fill="#202020">Configurations système</text>
  <text x="64" y="212" font-family="Ubuntu" font-size="14" fill="#5E5E5E">Sélectionnez les configurations système que vous souhaitez inclure dans l'inventaire</text>
  
  <!-- Contenu principal organisé par onglets -->
  <rect x="64" y="232" width="1072" height="428" rx="6" fill="#FFFFFF" stroke="#D1D1D6" stroke-width="1"/>
  
  <!-- Navigation par onglets -->
  <rect x="64" y="232" width="1072" height="48" rx="6 6 0 0" fill="#F5F5F7"/>
  
  <!-- Onglet Raccourcis clavier (actif) -->
  <rect x="64" y="232" width="160" height="48" fill="#FFFFFF"/>
  <text x="144" y="260" font-family="Ubuntu" font-size="14" font-weight="500" fill="#772953" text-anchor="middle">Raccourcis</text>
  <rect x="84" y="280" width="120" height="2" rx="1" fill="#772953"/>
  
  <!-- Autres onglets -->
  <text x="274" y="260" font-family="Ubuntu" font-size="14" fill="#5E5E5E" text-anchor="middle">Réseau</text>
  <text x="404" y="260" font-family="Ubuntu" font-size="14" fill="#5E5E5E" text-anchor="middle">Préférences</text>
  <text x="534" y="260" font-family="Ubuntu" font-size="14" fill="#5E5E5E" text-anchor="middle">Partages</text>
  <text x="664" y="260" font-family="Ubuntu" font-size="14" fill="#5E5E5E" text-anchor="middle">Services</text>
  <text x="794" y="260" font-family="Ubuntu" font-size="14" fill="#5E5E5E" text-anchor="middle">Dconf</text>
  <text x="924" y="260" font-family="Ubuntu" font-size="14" fill="#5E5E5E" text-anchor="middle">Comptes</text>
  
  <!-- Barre de filtres/recherche -->
  <rect x="80" y="296" width="1040" height="40" rx="4" fill="#F5F5F7"/>
  
  <rect x="96" y="304" width="240" height="24" rx="4" fill="#FFFFFF" stroke="#D1D1D6" stroke-width="1"/>
  <circle cx="110" cy="316" r="6" fill="none" stroke="#8E8E93" stroke-width="1.5"/>
  <line x1="114" y1="320" x2="118" y2="324" stroke="#8E8E93" stroke-width="1.5"/>
  <text x="128" y="320" font-family="Ubuntu" font-size="13" fill="#8E8E93">Rechercher...</text>
  
  <text x="360" y="320" font-family="Ubuntu" font-size="13" fill="#5E5E5E">Catégorie:</text>
  <rect x="436" y="304" width="120" height="24" rx="4" fill="#FFFFFF" stroke="#D1D1D6" stroke-width="1"/>
  <text x="456" y="320" font-family="Ubuntu" font-size="13" fill="#5E5E5E">Tous</text>
  <path d="M540" y="312" x2="546" y2="318" x3="540" y3="324" stroke="#5E5E5E" stroke-width="1.5" fill="none"/>
  
  <rect x="950" y="304" width="154" height="24" rx="4" fill="#FFFFFF" stroke="#D1D1D6" stroke-width="1"/>
  <text x="984" y="320" font-family="Ubuntu" font-size="13" fill="#5E5E5E">Tout sélectionner</text>
  
  <!-- Tableau des raccourcis clavier -->
  <g transform="translate(80, 352)">
    <!-- Entête du tableau -->
    <rect width="1040" height="36" rx="4" fill="#F5F5F7"/>
    <text x="52" y="23" font-family="Ubuntu" font-size="13" font-weight="500" fill="#5E5E5E">Action</text>
    <text x="520" y="23" font-family="Ubuntu" font-size="13" font-weight="500" fill="#5E5E5E">Raccourci</text>
    <text x="780" y="23" font-family="Ubuntu" font-size="13" font-weight="500" fill="#5E5E5E">Catégorie</text>
    
    <!-- Ligne 1 -->
    <g transform="translate(0, 36)">
      <rect width="1040" height="40" fill="#FFFFFF"/>
      <line x1="0" y1="40" x2="1040" y2="40" stroke="#D1D1D6" stroke-width="1"/>
      
      <!-- Checkbox (sélectionné) -->
      <rect x="16" y="10" width="20" height="20" rx="2" fill="#772953" stroke="#772953" stroke-width="1.5"/>
      <polyline points="21,20 25,24 31,16" fill="none" stroke="#FFFFFF" stroke-width="1.5" stroke-linecap="round" stroke-linejoin="round"/>
      
      <text x="52" y="24" font-family="Ubuntu" font-size="14" fill="#202020">Ouvrir le terminal</text>
      <rect x="520" y="8" width="136" height="24" rx="4" fill="#F5F5F7"/>
      <text x="536" y="24" font-family="Ubuntu" font-size="13" fill="#5E5E5E">Ctrl + Alt + T</text>
      <text x="780" y="24" font-family="Ubuntu" font-size="13" fill="#5E5E5E">Système</text>
    </g>
    
    <!-- Ligne 2 -->
    <g transform="translate(0, 76)">
      <rect width="1040" height="40" fill="#F5F5F7"/>
      <line x1="0" y1="40" x2="1040" y2="40" stroke="#D1D1D6" stroke-width="1"/>
      
      <!-- Checkbox (sélectionné) -->
      <rect x="16" y="10" width="20" height="20" rx="2" fill="#772953" stroke="#772953" stroke-width="1.5"/>
      <polyline points="21,20 25,24 31,16" fill="none" stroke="#FFFFFF" stroke-width="1.5" stroke-linecap="round" stroke-linejoin="round"/>
      
      <text x="52" y="24" font-family="Ubuntu" font-size="14" fill="#202020">Capturer l'écran</text>
      <rect x="520" y="8" width="136" height="24" rx="4" fill="#F5F5F7"/>
      <text x="536" y="24" font-family="Ubuntu" font-size="13" fill="#5E5E5E">Impr. écran</text>
      <text x="780" y="24" font-family="Ubuntu" font-size="13" fill="#5E5E5E">Captures d'écran</text>
    </g>
    
    <!-- Ligne 3 -->
    <g transform="translate(0, 116)">
      <rect width="1040" height="40" fill="#FFFFFF"/>
      <line x1="0" y1="40" x2="1040" y2="40" stroke="#D1D1D6" stroke-width="1"/>
      
      <!-- Checkbox (sélectionné) -->
      <rect x="16" y="10" width="20" height="20" rx="2" fill="#772953" stroke="#772953" stroke-width="1.5"/>
      <polyline points="21,20 25,24 31,16" fill="none" stroke="#FFFFFF" stroke-width="1.5" stroke-linecap="round" stroke-linejoin="round"/>
      
      <text x="52" y="24" font-family="Ubuntu" font-size="14" fill="#202020">Capturer une zone</text>
      <rect x="520" y="8" width="136" height="24" rx="4" fill="#F5F5F7"/>
      <text x="536" y="24" font-family="Ubuntu" font-size="13" fill="#5E5E5E">Maj + Impr. écran</text>
      <text x="780" y="24" font-family="Ubuntu" font-size="13" fill="#5E5E5E">Captures d'écran</text>
    </g>
    
    <!-- Ligne 4 (sélectionnée) -->
    <g transform="translate(0, 156)">
      <rect width="1040" height="40" fill="#772953" opacity="0.05"/>
      <line x1="0" y1="40" x2="1040" y2="40" stroke="#D1D1D6" stroke-width="1"/>
      
      <!-- Checkbox (sélectionné) -->
      <rect x="16" y="10" width="20" height="20" rx="2" fill="#772953" stroke="#772953" stroke-width="1.5"/>
      <polyline points="21,20 25,24 31,16" fill="none" stroke="#FFFFFF" stroke-width="1.5" stroke-linecap="round" stroke-linejoin="round"/>
      
      <text x="52" y="24" font-family="Ubuntu" font-size="14" fill="#202020">Changer d'application</text>
      <rect x="520" y="8" width="136" height="24" rx="4" fill="#F5F5F7"/>
      <text x="536" y="24" font-family="Ubuntu" font-size="13" fill="#5E5E5E">Alt + Tab</text>
      <text x="780" y="24" font-family="Ubuntu" font-size="13" fill="#5E5E5E">Navigation</text>
    </g>
    
    <!-- Ligne 5 -->
    <g transform="translate(0, 196)">
      <rect width="1040" height="40" fill="#FFFFFF"/>
      <line x1="0" y1="40" x2="1040" y2="40" stroke="#D1D1D6" stroke-width="1"/>
      
      <!-- Checkbox (non sélectionné) -->
      <rect x="16" y="10" width="20" height="20" rx="2" fill="#FFFFFF" stroke="#D1D1D6" stroke-width="1.5"/>
      
      <text x="52" y="24" font-family="Ubuntu" font-size="14" fill="#202020">Verrouiller l'écran</text>
      <rect x="520" y="8" width="136" height="24" rx="4" fill="#F5F5F7"/>
      <text x="536" y="24" font-family="Ubuntu" font-size="13" fill="#5E5E5E">Super + L</text>
      <text x="780" y="24" font-family="Ubuntu" font-size="13" fill="#5E5E5E">Système</text>
    </g>
    
    <!-- Ligne 6 -->
    <g transform="translate(0, 236)">
      <rect width="1040" height="40" fill="#F5F5F7"/>
      <line x1="0" y1="40" x2="1040" y2="40" stroke="#D1D1D6" stroke-width="1"/>
      
      <!-- Checkbox (sélectionné) -->
      <rect x="16" y="10" width="20" height="20" rx="2" fill="#772953" stroke="#772953" stroke-width="1.5"/>
      <polyline points="21,20 25,24 31,16" fill="none" stroke="#FFFFFF" stroke-width="1.5" stroke-linecap="round" stroke-linejoin="round"/>
      
      <text x="52" y="24" font-family="Ubuntu" font-size="14" fill="#202020">Afficher le menu des applications</text>
      <rect x="520" y="8" width="136" height="24" rx="4" fill="#F5F5F7"/>
      <text x="536" y="24" font-family="Ubuntu" font-size="13" fill="#5E5E5E">Super</text>
      <text x="780" y="24" font-family="Ubuntu" font-size="13" fill="#5E5E5E">Lanceur</text>
    </g>
    
    <!-- Ligne 7 -->
    <g transform="translate(0, 276)">
      <rect width="1040" height="40" fill="#FFFFFF"/>
      
      <!-- Checkbox (non sélectionné) -->
      <rect x="16" y="10" width="20" height="20" rx="2" fill="#FFFFFF" stroke="#D1D1D6" stroke-width="1.5"/>
      
      <text x="52" y="24" font-family="Ubuntu" font-size="14" fill="#202020">Ouvrir le gestionnaire de fichiers</text>
      <rect x="520" y="8" width="136" height="24" rx="4" fill="#F5F5F7"/>
      <text x="536" y="24" font-family="Ubuntu" font-size="13" fill="#5E5E5E">Super + E</text>
      <text x="780" y="24" font-family="Ubuntu" font-size="13" fill="#5E5E5E">Applications</text>
    </g>
    
    <!-- Paginator -->
    <rect x="456" y="332" width="128" height="24" rx="4" fill="#F5F5F7"/>
    <text x="520" y="348" font-family="Ubuntu" font-size="13" fill="#5E5E5E" text-anchor="middle">1 / 3</text>
    <path d="M476 348 L484 348 M480 344 L476 348 L480 352" stroke="#D1D1D6" stroke-width="1.5" fill="none"/>
    <path d="M556 348 L564 348 M560 344 L564 348 L560 352" stroke="#5E5E5E" stroke-width="1.5" fill="none"/>
  </g>
  
  <!-- Actions de navigation -->
  <g transform="translate(64, 680)">
    <rect width="120" height="36" rx="4" fill="#FFFFFF" stroke="#D1D1D6" stroke-width="1"/>
    <text x="60" y="23" font-family="Ubuntu" font-size="14" fill="#5E5E5E" text-anchor="middle">Précédent</text>
    
    <rect x="680" y="0" width="120" height="36" rx="4" fill="#772953"/>
    <text x="740" y="23" font-family="Ubuntu" font-size="14" fill="#FFFFFF" text-anchor="middle">Suivant</text>
    
    <rect x="540" y="0" width="120" height="36" rx="4" fill="#FFFFFF" stroke="#D1D1D6" stroke-width="1"/>
    <text x="600" y="23" font-family="Ubuntu" font-size="14" fill="#5E5E5E" text-anchor="middle">Ignorer cette étape</text>
  </g>
  
  <!-- Texte informatif -->
  <text x="546" y="740" font-family="Ubuntu" font-size="13" fill="#5E5E5E" text-anchor="middle">47 raccourcis détectés • 5 sélectionnés</text>
</svg>
